# xmcd
#
# Track frame offsets:
#	150
#	17998
#	33464
#	49711
#
# Disc length: 817 seconds
#
# Revision: 1
# Processed by: cddbd v1.5PL3 Copyright (c) Steve Scherf et al.
# Submitted via: audiograbber 1.83.01
#
DISCID=2c032f04
DTITLE=Silvia Schürch - Rock this country
DYEAR=2002
DGENRE=Country
TTITLE0=Silvia Schürch: Tell me why
TTITLE1=Silvia Schürch: Down to the last teardrop
TTITLE2=Silvia Schürch: The rose
TTITLE3=Silvia Schürch: Try to think about Elvis
EXTD=
EXTT0=
EXTT1=
EXTT2=
EXTT3=
PLAYORDER=
